ETBook-Expert.ufo
<glyph name="zero" format="2">
  <advance width="505"/>
  <unicode hex="0030"/>
  <outline>
    <contour>
      <point x="253" y="-14" type="curve" smooth="yes"/>
      <point x="379" y="-14"/>
      <point x="465" y="82"/>
      <point x="465" y="218" type="curve" smooth="yes"/>
      <point x="465" y="356"/>
      <point x="379" y="455"/>
      <point x="254" y="455" type="curve" smooth="yes"/>
      <point x="131" y="455"/>
      <point x="44" y="355"/>
      <point x="44" y="215" type="curve" smooth="yes"/>
      <point x="44" y="83"/>
      <point x="132" y="-14"/>
    </contour>
    <contour>
      <point x="252" y="408" type="curve" smooth="yes"/>
      <point x="342" y="408"/>
      <point x="396" y="340"/>
      <point x="396" y="220" type="curve" smooth="yes"/>
      <point x="396" y="103"/>
      <point x="341" y="35"/>
      <point x="253" y="35" type="curve" smooth="yes"/>
      <point x="168" y="35"/>
      <point x="114" y="104"/>
      <point x="114" y="221" type="curve" smooth="yes"/>
      <point x="114" y="337"/>
      <point x="169" y="408"/>
    </contour>
  </outline>
</glyph>
<glyph name="five" format="2">
  <advance width="444"/>
  <unicode hex="0035"/>
  <outline>
    <contour>
      <point x="344" y="373" type="curve"/>
      <point x="352" y="382"/>
      <point x="378" y="421"/>
      <point x="379" y="424" type="curve"/>
      <point x="382" y="431"/>
      <point x="376" y="439"/>
      <point x="367" y="440" type="curve" smooth="yes"/>
      <point x="255" y="453" type="line" smooth="yes"/>
      <point x="242" y="455"/>
      <point x="240" y="454"/>
      <point x="232" y="446" type="curve" smooth="yes"/>
      <point x="192" y="402"/>
      <point x="128" y="320"/>
      <point x="97" y="280" type="curve" smooth="yes"/>
      <point x="88" y="268"/>
      <point x="86" y="254"/>
      <point x="98" y="247" type="curve" smooth="yes"/>
      <point x="182" y="193"/>
      <point x="296" y="115"/>
      <point x="296" y="9" type="curve" smooth="yes"/>
      <point x="296" y="-63"/>
      <point x="245" y="-124"/>
      <point x="190" y="-124" type="curve" smooth="yes"/>
      <point x="177" y="-124"/>
      <point x="159" y="-119"/>
      <point x="116" y="-104" type="curve" smooth="yes"/>
      <point x="106" y="-100"/>
      <point x="97" y="-97"/>
      <point x="90" y="-97" type="curve" smooth="yes"/>
      <point x="70" y="-97"/>
      <point x="54" y="-115"/>
      <point x="54" y="-136" type="curve" smooth="yes"/>
      <point x="54" y="-162"/>
      <point x="76" y="-177"/>
      <point x="107" y="-177" type="curve" smooth="yes"/>
      <point x="158" y="-177"/>
      <point x="215" y="-159"/>
      <point x="263" y="-128" type="curve" smooth="yes"/>
      <point x="328" y="-86"/>
      <point x="364" y="-26"/>
      <point x="364" y="41" type="curve" smooth="yes"/>
      <point x="364" y="102"/>
      <point x="331" y="168"/>
      <point x="273" y="223" type="curve" smooth="yes"/>
      <point x="241" y="253"/>
      <point x="218" y="270"/>
      <point x="172" y="300" type="curve"/>
      <point x="167" y="302"/>
      <point x="168" y="311"/>
      <point x="171" y="315" type="curve" smooth="yes"/>
      <point x="181" y="329"/>
      <point x="203" y="359"/>
      <point x="218" y="373" type="curve"/>
      <point x="223" y="379"/>
      <point x="229" y="379"/>
      <point x="235" y="379" type="curve"/>
      <point x="325" y="366" type="line"/>
      <point x="334" y="366"/>
      <point x="338" y="367"/>
    </contour>
  </outline>
</glyph>
<glyph name="colon" format="2">
  <advance width="257"/>
  <unicode hex="003A"/>
  <outline>
    <contour>
      <point x="129" y="320" type="curve" smooth="yes"/>
      <point x="159" y="320"/>
      <point x="182" y="342"/>
      <point x="182" y="371" type="curve" smooth="yes"/>
      <point x="182" y="402"/>
      <point x="159" y="423"/>
      <point x="129" y="423" type="curve" smooth="yes"/>
      <point x="99" y="423"/>
      <point x="76" y="402"/>
      <point x="76" y="371" type="curve" smooth="yes"/>
      <point x="76" y="342"/>
      <point x="99" y="320"/>
    </contour>
    <contour>
      <point x="129" y="12" type="curve" smooth="yes"/>
      <point x="159" y="12"/>
      <point x="182" y="34"/>
      <point x="182" y="64" type="curve" smooth="yes"/>
      <point x="182" y="95"/>
      <point x="159" y="115"/>
      <point x="129" y="115" type="curve" smooth="yes"/>
      <point x="99" y="115"/>
      <point x="76" y="94"/>
      <point x="76" y="64" type="curve" smooth="yes"/>
      <point x="76" y="34"/>
      <point x="99" y="12"/>
    </contour>
  </outline>
</glyph>
<glyph name="O" format="2">
  <advance width="742"/>
  <unicode hex="004F"/>
  <outline>
    <contour>
      <point x="179" y="-17" type="curve" smooth="yes"/>
      <point x="638" y="631" type="line" smooth="yes"/>
      <point x="643" y="638"/>
      <point x="649" y="656"/>
      <point x="634" y="658" type="curve" smooth="yes"/>
      <point x="612" y="660" type="line" smooth="yes"/>
      <point x="604" y="661"/>
      <point x="598" y="660"/>
      <point x="593" y="654" type="curve"/>
      <point x="123" y="-11" type="line"/>
      <point x="118" y="-19"/>
      <point x="117" y="-33"/>
      <point x="129" y="-34" type="curve" smooth="yes"/>
      <point x="158" y="-36" type="line"/>
      <point x="167" y="-36"/>
      <point x="175" y="-23"/>
    </contour>
    <contour>
      <point x="547" y="-13" type="curve" smooth="yes"/>
      <point x="630" y="-13"/>
      <point x="708" y="46"/>
      <point x="708" y="117" type="curve" smooth="yes"/>
      <point x="708" y="157"/>
      <point x="686" y="188"/>
      <point x="650" y="202" type="curve" smooth="yes"/>
      <point x="645" y="204"/>
      <point x="632" y="206"/>
      <point x="643" y="216" type="curve" smooth="yes"/>
      <point x="663" y="233"/>
      <point x="674" y="251"/>
      <point x="674" y="272" type="curve" smooth="yes"/>
      <point x="674" y="313"/>
      <point x="632" y="340"/>
      <point x="584" y="340" type="curve" smooth="yes"/>
      <point x="532" y="340"/>
      <point x="486" y="308"/>
      <point x="461" y="254" type="curve"/>
      <point x="457" y="242"/>
      <point x="490" y="230"/>
      <point x="495" y="241" type="curve"/>
      <point x="513" y="275"/>
      <point x="540" y="292"/>
      <point x="565" y="292" type="curve" smooth="yes"/>
      <point x="590" y="292"/>
      <point x="608" y="275"/>
      <point x="608" y="256" type="curve" smooth="yes"/>
      <point x="608" y="237"/>
      <point x="581" y="206"/>
      <point x="525" y="172" type="curve"/>
      <point x="516" y="163"/>
      <point x="534" y="136"/>
      <point x="548" y="146" type="curve" smooth="yes"/>
      <point x="567" y="160"/>
      <point x="576" y="163"/>
      <point x="588" y="163" type="curve" smooth="yes"/>
      <point x="614" y="163"/>
      <point x="638" y="138"/>
      <point x="638" y="104" type="curve" smooth="yes"/>
      <point x="638" y="59"/>
      <point x="604" y="23"/>
      <point x="567" y="23" type="curve" smooth="yes"/>
      <point x="555" y="23"/>
      <point x="545" y="26"/>
      <point x="528" y="38" type="curve" smooth="yes"/>
      <point x="514" y="48"/>
      <point x="497" y="63"/>
      <point x="479" y="63" type="curve" smooth="yes"/>
      <point x="462" y="63"/>
      <point x="446" y="50"/>
      <point x="446" y="34" type="curve" smooth="yes"/>
      <point x="446" y="4"/>
      <point x="500" y="-13"/>
    </contour>
    <contour>
      <point x="277" y="299" type="curve"/>
      <point x="288" y="301"/>
      <point x="291" y="309"/>
      <point x="293" y="313" type="curve"/>
      <point x="298" y="335"/>
      <point x="304" y="367"/>
      <point x="305" y="387" type="curve" smooth="yes"/>
      <point x="305" y="390"/>
      <point x="297" y="393"/>
      <point x="287" y="393" type="curve" smooth="yes"/>
      <point x="277" y="393"/>
      <point x="269" y="391"/>
      <point x="269" y="388" type="curve"/>
      <point x="264" y="368"/>
      <point x="262" y="361"/>
      <point x="257" y="357" type="curve"/>
      <point x="250" y="352"/>
      <point x="228" y="354"/>
      <point x="219" y="353" type="curve"/>
      <point x="195" y="352"/>
      <point x="162" y="351"/>
      <point x="129" y="353" type="curve"/>
      <point x="126" y="353"/>
      <point x="115" y="356"/>
      <point x="119" y="360" type="curve"/>
      <point x="150" y="387"/>
      <point x="169" y="400"/>
      <point x="194" y="417" type="curve" smooth="yes"/>
      <point x="239" y="449"/>
      <point x="293" y="480"/>
      <point x="293" y="544" type="curve" smooth="yes"/>
      <point x="293" y="603"/>
      <point x="238" y="645"/>
      <point x="171" y="645" type="curve" smooth="yes"/>
      <point x="101" y="645"/>
      <point x="47" y="601"/>
      <point x="40" y="529" type="curve"/>
      <point x="40" y="521"/>
      <point x="72" y="522"/>
      <point x="74" y="528" type="curve" smooth="yes"/>
      <point x="88" y="570"/>
      <point x="119" y="594"/>
      <point x="155" y="594" type="curve" smooth="yes"/>
      <point x="192" y="594"/>
      <point x="220" y="570"/>
      <point x="220" y="538" type="curve" smooth="yes"/>
      <point x="220" y="483"/>
      <point x="155" y="434"/>
      <point x="116" y="401" type="curve" smooth="yes"/>
      <point x="74" y="365"/>
      <point x="53" y="344"/>
      <point x="37" y="325" type="curve"/>
      <point x="33" y="322"/>
      <point x="34" y="311"/>
      <point x="34" y="307" type="curve"/>
      <point x="32" y="301"/>
      <point x="38" y="300"/>
      <point x="44" y="299" type="curve"/>
      <point x="106" y="298"/>
      <point x="215" y="298"/>
    </contour>
  </outline>
</glyph>
<glyph name="b" format="2">
  <advance width="502"/>
  <unicode hex="0062"/>
  <outline>
    <contour>
      <point x="448" y="148" type="curve" smooth="yes"/>
      <point x="448" y="200"/>
      <point x="412" y="242"/>
      <point x="363" y="267" type="curve" smooth="yes"/>
      <point x="356" y="271"/>
      <point x="356" y="276"/>
      <point x="364" y="280" type="curve" smooth="yes"/>
      <point x="397" y="298"/>
      <point x="424" y="330"/>
      <point x="424" y="367" type="curve" smooth="yes"/>
      <point x="424" y="409"/>
      <point x="399" y="446"/>
      <point x="361" y="464" type="curve" smooth="yes"/>
      <point x="328" y="480"/>
      <point x="312" y="485"/>
      <point x="251" y="485" type="curve" smooth="yes"/>
      <point x="185" y="485"/>
      <point x="120" y="482"/>
      <point x="55" y="479" type="curve"/>
      <point x="49" y="478" type="line"/>
      <point x="41" y="476"/>
      <point x="40" y="444"/>
      <point x="50" y="444" type="curve" smooth="yes"/>
      <point x="65" y="444" type="line" smooth="yes"/>
      <point x="117" y="444"/>
      <point x="120" y="444"/>
      <point x="120" y="376" type="curve" smooth="yes"/>
      <point x="120" y="102" type="line" smooth="yes"/>
      <point x="120" y="36"/>
      <point x="116" y="34"/>
      <point x="60" y="34" type="curve" smooth="yes"/>
      <point x="51" y="34"/>
      <point x="40" y="37"/>
      <point x="35" y="27" type="curve" smooth="yes"/>
      <point x="31" y="18"/>
      <point x="32" y="-1"/>
      <point x="43" y="-3" type="curve"/>
      <point x="247" y="-2" type="line" smooth="yes"/>
      <point x="305" y="-2"/>
      <point x="317" y="0"/>
      <point x="340" y="5" type="curve" smooth="yes"/>
      <point x="401" y="17"/>
      <point x="448" y="80"/>
    </contour>
    <contour>
      <point x="344" y="363" type="curve" smooth="yes"/>
      <point x="344" y="330"/>
      <point x="329" y="307"/>
      <point x="308" y="297" type="curve" smooth="yes"/>
      <point x="281" y="285"/>
      <point x="269" y="287"/>
      <point x="241" y="287" type="curve" smooth="yes"/>
      <point x="208" y="287" type="line" smooth="yes"/>
      <point x="202" y="287"/>
      <point x="195" y="294"/>
      <point x="195" y="302" type="curve" smooth="yes"/>
      <point x="195" y="433" type="line" smooth="yes"/>
      <point x="195" y="441"/>
      <point x="199" y="452"/>
      <point x="206" y="454" type="curve"/>
      <point x="243" y="458"/>
      <point x="285" y="460"/>
      <point x="315" y="433" type="curve" smooth="yes"/>
      <point x="333" y="417"/>
      <point x="344" y="392"/>
    </contour>
    <contour>
      <point x="367" y="144" type="curve" smooth="yes"/>
      <point x="367" y="83"/>
      <point x="327" y="35"/>
      <point x="269" y="35" type="curve" smooth="yes"/>
      <point x="222" y="35"/>
      <point x="203" y="49"/>
      <point x="199" y="74" type="curve" smooth="yes"/>
      <point x="197" y="85"/>
      <point x="195" y="106"/>
      <point x="195" y="131" type="curve" smooth="yes"/>
      <point x="195" y="231" type="line" smooth="yes"/>
      <point x="195" y="247"/>
      <point x="209" y="252"/>
      <point x="217" y="253" type="curve"/>
      <point x="236" y="253"/>
      <point x="245" y="253"/>
      <point x="264" y="253" type="curve" smooth="yes"/>
      <point x="286" y="253"/>
      <point x="296" y="250"/>
      <point x="316" y="237" type="curve" smooth="yes"/>
      <point x="347" y="218"/>
      <point x="367" y="183"/>
    </contour>
  </outline>
</glyph>
<glyph name="c" format="2">
  <advance width="524"/>
  <unicode hex="0063"/>
  <outline>
    <contour>
      <point x="439" y="4" type="curve"/>
      <point x="460" y="40"/>
      <point x="479" y="86"/>
      <point x="489" y="124" type="curve"/>
      <point x="494" y="139"/>
      <point x="464" y="141"/>
      <point x="458" y="129" type="curve" smooth="yes"/>
      <point x="440" y="96"/>
      <point x="435" y="90"/>
      <point x="418" y="73" type="curve" smooth="yes"/>
      <point x="386" y="43"/>
      <point x="355" y="30"/>
      <point x="310" y="30" type="curve" smooth="yes"/>
      <point x="203" y="30"/>
      <point x="127" y="121"/>
      <point x="127" y="248" type="curve" smooth="yes"/>
      <point x="127" y="372"/>
      <point x="194" y="449"/>
      <point x="301" y="449" type="curve" smooth="yes"/>
      <point x="369" y="449"/>
      <point x="416" y="411"/>
      <point x="439" y="342" type="curve"/>
      <point x="446" y="330"/>
      <point x="467" y="335"/>
      <point x="471" y="349" type="curve"/>
      <point x="468" y="376"/>
      <point x="464" y="428"/>
      <point x="464" y="458" type="curve"/>
      <point x="463" y="468"/>
      <point x="443" y="466"/>
      <point x="439" y="463" type="curve"/>
      <point x="430" y="457"/>
      <point x="419" y="462"/>
      <point x="411" y="466" type="curve"/>
      <point x="368" y="482"/>
      <point x="341" y="490"/>
      <point x="297" y="490" type="curve" smooth="yes"/>
      <point x="144" y="490"/>
      <point x="39" y="383"/>
      <point x="39" y="233" type="curve" smooth="yes"/>
      <point x="39" y="90"/>
      <point x="142" y="-14"/>
      <point x="289" y="-14" type="curve" smooth="yes"/>
      <point x="315" y="-14"/>
      <point x="343" y="-12"/>
      <point x="369" y="-4" type="curve"/>
      <point x="380" y="0"/>
      <point x="387" y="3"/>
      <point x="394" y="4" type="curve"/>
      <point x="401" y="6"/>
      <point x="409" y="7"/>
      <point x="421" y="7" type="curve" smooth="yes"/>
      <point x="425" y="7"/>
      <point x="427" y="7"/>
    </contour>
  </outline>
</glyph>
<glyph name="d" format="2">
  <advance width="573"/>
  <unicode hex="0064"/>
  <outline>
    <contour>
      <point x="360" y="13" type="curve" smooth="yes"/>
      <point x="462" y="44"/>
      <point x="534" y="144"/>
      <point x="534" y="254" type="curve" smooth="yes"/>
      <point x="534" y="327"/>
      <point x="504" y="390"/>
      <point x="448" y="432" type="curve" smooth="yes"/>
      <point x="399" y="470"/>
      <point x="341" y="485"/>
      <point x="251" y="485" type="curve" smooth="yes"/>
      <point x="183" y="485"/>
      <point x="115" y="482"/>
      <point x="47" y="480" type="curve"/>
      <point x="42" y="478" type="line"/>
      <point x="27" y="475"/>
      <point x="24" y="444"/>
      <point x="43" y="441" type="curve"/>
      <point x="49" y="441" type="line" smooth="yes"/>
      <point x="99" y="441"/>
      <point x="102" y="441"/>
      <point x="102" y="376" type="curve" smooth="yes"/>
      <point x="102" y="102" type="line"/>
      <point x="101" y="77" type="line" smooth="yes"/>
      <point x="100" y="41"/>
      <point x="93" y="37"/>
      <point x="55" y="37" type="curve" smooth="yes"/>
      <point x="46" y="37" type="line"/>
      <point x="30" y="38"/>
      <point x="28" y="-3"/>
      <point x="45" y="-3" type="curve" smooth="yes"/>
      <point x="88" y="-1"/>
      <point x="177" y="-1"/>
      <point x="219" y="-2" type="curve" smooth="yes"/>
      <point x="247" y="-3"/>
      <point x="269" y="-3"/>
      <point x="290" y="-1" type="curve" smooth="yes"/>
      <point x="312" y="1"/>
      <point x="333" y="5"/>
    </contour>
    <contour>
      <point x="380" y="406" type="curve" smooth="yes"/>
      <point x="422" y="372"/>
      <point x="448" y="313"/>
      <point x="448" y="242" type="curve" smooth="yes"/>
      <point x="448" y="157"/>
      <point x="406" y="86"/>
      <point x="341" y="55" type="curve" smooth="yes"/>
      <point x="309" y="40"/>
      <point x="294" y="38"/>
      <point x="230" y="38" type="curve" smooth="yes"/>
      <point x="182" y="38"/>
      <point x="180" y="44"/>
      <point x="180" y="84" type="curve" smooth="yes"/>
      <point x="180" y="425" type="line" smooth="yes"/>
      <point x="180" y="437"/>
      <point x="188" y="445"/>
      <point x="195" y="445" type="curve"/>
      <point x="225" y="448"/>
      <point x="240" y="446"/>
      <point x="270" y="442" type="curve" smooth="yes"/>
      <point x="323" y="437"/>
      <point x="351" y="429"/>
    </contour>
  </outline>
</glyph>
<glyph name="l" format="2">
  <advance width="436"/>
  <unicode hex="006C"/>
  <outline>
    <contour>
      <point x="366" y="9" type="curve"/>
      <point x="416" y="111" type="line" smooth="yes"/>
      <point x="420" y="120"/>
      <point x="394" y="129"/>
      <point x="388" y="121" type="curve" smooth="yes"/>
      <point x="375" y="103"/>
      <point x="361" y="78"/>
      <point x="344" y="63" type="curve" smooth="yes"/>
      <point x="332" y="52"/>
      <point x="316" y="47"/>
      <point x="283" y="47" type="curve" smooth="yes"/>
      <point x="230" y="47" type="line" smooth="yes"/>
      <point x="201" y="47"/>
      <point x="178" y="46"/>
      <point x="178" y="78" type="curve" smooth="yes"/>
      <point x="179" y="384" type="line" smooth="yes"/>
      <point x="179" y="433"/>
      <point x="183" y="441"/>
      <point x="227" y="442" type="curve" smooth="yes"/>
      <point x="235" y="442"/>
      <point x="243" y="440"/>
      <point x="252" y="441" type="curve"/>
      <point x="262" y="441"/>
      <point x="265" y="459"/>
      <point x="261" y="470" type="curve"/>
      <point x="258" y="480"/>
      <point x="252" y="480"/>
      <point x="241" y="479" type="curve"/>
      <point x="183" y="477"/>
      <point x="106" y="478"/>
      <point x="63" y="480" type="curve" smooth="yes"/>
      <point x="56" y="480"/>
      <point x="44" y="481"/>
      <point x="39" y="475" type="curve"/>
      <point x="33" y="467"/>
      <point x="33" y="451"/>
      <point x="41" y="446" type="curve"/>
      <point x="44" y="445"/>
      <point x="52" y="444"/>
      <point x="55" y="445" type="curve"/>
      <point x="92" y="445"/>
      <point x="101" y="435"/>
      <point x="101" y="400" type="curve" smooth="yes"/>
      <point x="101" y="105" type="line" smooth="yes"/>
      <point x="101" y="46"/>
      <point x="97" y="37"/>
      <point x="56" y="37" type="curve"/>
      <point x="38" y="41"/>
      <point x="31" y="32"/>
      <point x="31" y="16" type="curve" smooth="yes"/>
      <point x="31" y="-2"/>
      <point x="46" y="-2"/>
      <point x="54" y="-2" type="curve" smooth="yes"/>
      <point x="164" y="0"/>
      <point x="204" y="0"/>
      <point x="344" y="-2" type="curve"/>
      <point x="355" y="0"/>
      <point x="359" y="1"/>
    </contour>
  </outline>
</glyph>
<glyph name="z" format="2">
  <advance width="497"/>
  <unicode hex="007A"/>
  <outline>
    <contour>
      <point x="446" y="12" type="curve" smooth="yes"/>
      <point x="450" y="48"/>
      <point x="451" y="85"/>
      <point x="454" y="122" type="curve" smooth="yes"/>
      <point x="455" y="136"/>
      <point x="455" y="147"/>
      <point x="453" y="149" type="curve" smooth="yes"/>
      <point x="447" y="155"/>
      <point x="430" y="155"/>
      <point x="423" y="147" type="curve"/>
      <point x="410" y="59"/>
      <point x="406" y="46"/>
      <point x="320" y="45" type="curve" smooth="yes"/>
      <point x="279" y="44"/>
      <point x="208" y="44"/>
      <point x="167" y="45" type="curve" smooth="yes"/>
      <point x="163" y="45"/>
      <point x="142" y="44"/>
      <point x="149" y="51" type="curve"/>
      <point x="219" y="152"/>
      <point x="362" y="349"/>
      <point x="434" y="447" type="curve"/>
      <point x="437" y="452"/>
      <point x="439" y="475"/>
      <point x="431" y="477" type="curve"/>
      <point x="426" y="479"/>
      <point x="391" y="479"/>
      <point x="353" y="479" type="curve" smooth="yes"/>
      <point x="314" y="478"/>
      <point x="271" y="478"/>
      <point x="248" y="478" type="curve" smooth="yes"/>
      <point x="226" y="478"/>
      <point x="97" y="481"/>
      <point x="87" y="477" type="curve"/>
      <point x="80" y="475"/>
      <point x="77" y="473"/>
      <point x="75" y="465" type="curve"/>
      <point x="74" y="437"/>
      <point x="71" y="399"/>
      <point x="70" y="372" type="curve"/>
      <point x="70" y="364"/>
      <point x="69" y="361"/>
      <point x="75" y="356" type="curve"/>
      <point x="79" y="353"/>
      <point x="83" y="352"/>
      <point x="87" y="352" type="curve" smooth="yes"/>
      <point x="92" y="352"/>
      <point x="100" y="354"/>
      <point x="100" y="361" type="curve"/>
      <point x="108" y="429"/>
      <point x="111" y="432"/>
      <point x="176" y="432" type="curve" smooth="yes"/>
      <point x="313" y="432" type="line" smooth="yes"/>
      <point x="316" y="432"/>
      <point x="330" y="431"/>
      <point x="328" y="427" type="curve"/>
      <point x="254" y="318"/>
      <point x="120" y="135"/>
      <point x="46" y="37" type="curve"/>
      <point x="41" y="29"/>
      <point x="39" y="25"/>
      <point x="38" y="21" type="curve"/>
      <point x="36" y="15"/>
      <point x="35" y="0"/>
      <point x="53" y="-2" type="curve"/>
      <point x="158" y="0"/>
      <point x="323" y="0"/>
      <point x="426" y="-2" type="curve" smooth="yes"/>
      <point x="433" y="-2"/>
      <point x="445" y="2"/>
    </contour>
  </outline>
</glyph>
<glyph name="copyright" format="2">
  <advance width="528"/>
  <unicode hex="00A9"/>
  <outline>
    <contour>
      <point x="269" y="8" type="curve" smooth="yes"/>
      <point x="390" y="8"/>
      <point x="489" y="107"/>
      <point x="489" y="229" type="curve" smooth="yes"/>
      <point x="489" y="352"/>
      <point x="390" y="450"/>
      <point x="269" y="450" type="curve" smooth="yes"/>
      <point x="148" y="450"/>
      <point x="49" y="351"/>
      <point x="49" y="229" type="curve" smooth="yes"/>
      <point x="49" y="107"/>
      <point x="148" y="8"/>
    </contour>
    <contour>
      <point x="269" y="417" type="curve" smooth="yes"/>
      <point x="372" y="417"/>
      <point x="455" y="333"/>
      <point x="455" y="229" type="curve" smooth="yes"/>
      <point x="455" y="125"/>
      <point x="372" y="41"/>
      <point x="269" y="41" type="curve" smooth="yes"/>
      <point x="166" y="41"/>
      <point x="83" y="125"/>
      <point x="83" y="229" type="curve" smooth="yes"/>
      <point x="83" y="333"/>
      <point x="166" y="417"/>
    </contour>
    <contour>
      <point x="270" y="93" type="curve" smooth="yes"/>
      <point x="318" y="93"/>
      <point x="354" y="112"/>
      <point x="383" y="151" type="curve" smooth="yes"/>
      <point x="389" y="159"/>
      <point x="386" y="163"/>
      <point x="379" y="167" type="curve"/>
      <point x="371" y="171"/>
      <point x="367" y="174"/>
      <point x="360" y="165" type="curve" smooth="yes"/>
      <point x="339" y="137"/>
      <point x="313" y="125"/>
      <point x="280" y="125" type="curve" smooth="yes"/>
      <point x="226" y="125"/>
      <point x="193" y="162"/>
      <point x="193" y="236" type="curve" smooth="yes"/>
      <point x="193" y="302"/>
      <point x="227" y="340"/>
      <point x="277" y="340" type="curve" smooth="yes"/>
      <point x="314" y="340"/>
      <point x="339" y="323"/>
      <point x="353" y="286" type="curve"/>
      <point x="356" y="281"/>
      <point x="355" y="273"/>
      <point x="364" y="273" type="curve" smooth="yes"/>
      <point x="373" y="273" type="line" smooth="yes"/>
      <point x="383" y="273"/>
      <point x="382" y="284"/>
      <point x="381" y="291" type="curve"/>
      <point x="376" y="358" type="line"/>
      <point x="376" y="365"/>
      <point x="371" y="368"/>
      <point x="366" y="368" type="curve" smooth="yes"/>
      <point x="352" y="368" type="line"/>
      <point x="348" y="356"/>
      <point x="347" y="354"/>
      <point x="343" y="354" type="curve" smooth="yes"/>
      <point x="342" y="354"/>
      <point x="340" y="355"/>
      <point x="335" y="357" type="curve"/>
      <point x="306" y="366"/>
      <point x="300" y="368"/>
      <point x="280" y="368" type="curve" smooth="yes"/>
      <point x="196" y="368"/>
      <point x="131" y="308"/>
      <point x="131" y="227" type="curve" smooth="yes"/>
      <point x="131" y="151"/>
      <point x="192" y="93"/>
    </contour>
  </outline>
</glyph>
<glyph name="macron" format="2">
  <advance width="349"/>
  <unicode hex="00AF"/>
  <outline>
    <contour>
      <point x="341" y="590" type="curve" smooth="yes"/>
      <point x="341" y="634" type="line" smooth="yes"/>
      <point x="341" y="648"/>
      <point x="335" y="650"/>
      <point x="321" y="650" type="curve" smooth="yes"/>
      <point x="40" y="650" type="line" smooth="yes"/>
      <point x="37" y="650"/>
      <point x="33" y="650"/>
      <point x="30" y="650" type="curve" smooth="yes"/>
      <point x="22" y="650"/>
      <point x="9" y="649"/>
      <point x="9" y="639" type="curve" smooth="yes"/>
      <point x="9" y="594" type="line" smooth="yes"/>
      <point x="9" y="583"/>
      <point x="11" y="575"/>
      <point x="26" y="575" type="curve" smooth="yes"/>
      <point x="318" y="575" type="line" smooth="yes"/>
      <point x="333" y="575"/>
      <point x="341" y="577"/>
    </contour>
  </outline>
</glyph>
<glyph name="acute" format="2">
  <advance width="349"/>
  <unicode hex="00B4"/>
  <outline>
    <contour>
      <point x="288" y="723" type="curve"/>
      <point x="290" y="731"/>
      <point x="281" y="733"/>
      <point x="274" y="732" type="curve"/>
      <point x="186" y="732" type="line" smooth="yes"/>
      <point x="179" y="732"/>
      <point x="171" y="727"/>
      <point x="167" y="719" type="curve"/>
      <point x="118" y="555" type="line" smooth="yes"/>
      <point x="113" y="539"/>
      <point x="138" y="539"/>
      <point x="144" y="546" type="curve" smooth="yes"/>
      <point x="287" y="718" type="line"/>
      <point x="287" y="719"/>
      <point x="288" y="721"/>
    </contour>
  </outline>
</glyph>
<glyph name="paragraph" format="2">
  <advance width="349"/>
  <unicode hex="00B6"/>
  <outline>
    <contour>
      <point x="310" y="329" type="line"/>
      <point x="313" y="349"/>
      <point x="306" y="352"/>
      <point x="285" y="353" type="curve" smooth="yes"/>
      <point x="204" y="355"/>
      <point x="116" y="357"/>
      <point x="59" y="353" type="curve"/>
      <point x="48" y="354"/>
      <point x="32" y="342"/>
      <point x="31" y="333" type="curve"/>
      <point x="28" y="244" type="line"/>
      <point x="28" y="241"/>
      <point x="32" y="236"/>
      <point x="37" y="234" type="curve"/>
      <point x="44" y="232"/>
      <point x="50" y="234"/>
      <point x="54" y="234" type="curve" smooth="yes"/>
      <point x="70" y="234"/>
      <point x="69" y="265"/>
      <point x="77" y="272" type="curve"/>
      <point x="80" y="274"/>
      <point x="90" y="274"/>
      <point x="93" y="274" type="curve" smooth="yes"/>
      <point x="116" y="275"/>
      <point x="147" y="277"/>
      <point x="215" y="275" type="curve"/>
      <point x="227" y="274"/>
      <point x="230" y="267"/>
      <point x="227" y="259" type="curve" smooth="yes"/>
      <point x="128" y="28" type="line" smooth="yes"/>
      <point x="119" y="7"/>
      <point x="154" y="-1"/>
      <point x="160" y="-2" type="curve"/>
      <point x="171" y="-3"/>
      <point x="178" y="3"/>
      <point x="181" y="8" type="curve"/>
    </contour>
  </outline>
</glyph>
<glyph name="odieresis" format="2">
  <advance width="577"/>
  <unicode hex="00F6"/>
  <outline>
    <contour>
      <point x="289" y="-14" type="curve" smooth="yes"/>
      <point x="432" y="-14"/>
      <point x="536" y="97"/>
      <point x="536" y="245" type="curve" smooth="yes"/>
      <point x="536" y="383"/>
      <point x="435" y="490"/>
      <point x="290" y="490" type="curve" smooth="yes"/>
      <point x="143" y="490"/>
      <point x="40" y="380"/>
      <point x="40" y="232" type="curve" smooth="yes"/>
      <point x="40" y="94"/>
      <point x="145" y="-14"/>
    </contour>
    <contour>
      <point x="282" y="450" type="curve" smooth="yes"/>
      <point x="390" y="449"/>
      <point x="451" y="362"/>
      <point x="451" y="229" type="curve" smooth="yes"/>
      <point x="451" y="134"/>
      <point x="414" y="24"/>
      <point x="299" y="24" type="curve" smooth="yes"/>
      <point x="196" y="24"/>
      <point x="125" y="118"/>
      <point x="125" y="246" type="curve" smooth="yes"/>
      <point x="125" y="348"/>
      <point x="186" y="452"/>
    </contour>
    <contour>
      <point x="435" y="616" type="curve" smooth="yes"/>
      <point x="435" y="649"/>
      <point x="408" y="676"/>
      <point x="374" y="676" type="curve" smooth="yes"/>
      <point x="341" y="676"/>
      <point x="314" y="649"/>
      <point x="314" y="616" type="curve" smooth="yes"/>
      <point x="314" y="583"/>
      <point x="341" y="556"/>
      <point x="374" y="556" type="curve" smooth="yes"/>
      <point x="408" y="556"/>
      <point x="435" y="583"/>
    </contour>
    <contour>
      <point x="257" y="616" type="curve" smooth="yes"/>
      <point x="257" y="649"/>
      <point x="230" y="676"/>
      <point x="197" y="676" type="curve" smooth="yes"/>
      <point x="164" y="676"/>
      <point x="137" y="649"/>
      <point x="137" y="616" type="curve" smooth="yes"/>
      <point x="137" y="582"/>
      <point x="164" y="556"/>
      <point x="197" y="556" type="curve" smooth="yes"/>
      <point x="230" y="556"/>
      <point x="257" y="582"/>
    </contour>
  </outline>
</glyph>
<glyph name="oslash" format="2">
  <advance width="577"/>
  <unicode hex="00F8"/>
  <outline>
    <contour>
      <point x="521" y="467" type="line"/>
      <point x="527" y="482"/>
      <point x="499" y="508"/>
      <point x="486" y="493" type="curve" smooth="yes"/>
      <point x="440" y="442" type="line"/>
      <point x="400" y="472"/>
      <point x="348" y="490"/>
      <point x="290" y="490" type="curve" smooth="yes"/>
      <point x="143" y="490"/>
      <point x="40" y="380"/>
      <point x="40" y="232" type="curve" smooth="yes"/>
      <point x="40" y="168"/>
      <point x="62" y="111"/>
      <point x="101" y="67" type="curve"/>
      <point x="49" y="10" type="line"/>
      <point x="41" y="-3"/>
      <point x="61" y="-30"/>
      <point x="80" y="-19" type="curve"/>
      <point x="132" y="38" type="line"/>
      <point x="174" y="5"/>
      <point x="228" y="-14"/>
      <point x="289" y="-14" type="curve" smooth="yes"/>
      <point x="432" y="-14"/>
      <point x="536" y="97"/>
      <point x="536" y="245" type="curve" smooth="yes"/>
      <point x="536" y="311"/>
      <point x="512" y="370"/>
      <point x="472" y="413" type="curve"/>
    </contour>
    <contour>
      <point x="451" y="229" type="curve" smooth="yes"/>
      <point x="451" y="134"/>
      <point x="414" y="24"/>
      <point x="299" y="24" type="curve" smooth="yes"/>
      <point x="248" y="24"/>
      <point x="205" y="46"/>
      <point x="175" y="85" type="curve"/>
      <point x="424" y="360" type="line"/>
      <point x="442" y="325"/>
      <point x="451" y="280"/>
    </contour>
    <contour>
      <point x="282" y="450" type="curve" smooth="yes"/>
      <point x="331" y="449"/>
      <point x="371" y="431"/>
      <point x="400" y="398" type="curve"/>
      <point x="151" y="123" type="line"/>
      <point x="134" y="157"/>
      <point x="125" y="199"/>
      <point x="125" y="246" type="curve" smooth="yes"/>
      <point x="125" y="348"/>
      <point x="186" y="452"/>
    </contour>
  </outline>
</glyph>
<glyph name="yacute" format="2">
  <advance width="500"/>
  <unicode hex="00FD"/>
  <outline>
    <contour>
      <point x="486" y="445" type="curve" smooth="yes"/>
      <point x="494" y="445"/>
      <point x="497" y="456"/>
      <point x="497" y="461" type="curve" smooth="yes"/>
      <point x="497" y="467"/>
      <point x="495" y="478"/>
      <point x="485" y="478" type="curve" smooth="yes"/>
      <point x="431" y="476"/>
      <point x="368" y="476"/>
      <point x="333" y="478" type="curve"/>
      <point x="319" y="478"/>
      <point x="317" y="464"/>
      <point x="321" y="454" type="curve"/>
      <point x="324" y="444"/>
      <point x="330" y="441"/>
      <point x="339" y="444" type="curve"/>
      <point x="370" y="444"/>
      <point x="371" y="438"/>
      <point x="371" y="430" type="curve" smooth="yes"/>
      <point x="371" y="425"/>
      <point x="368" y="419"/>
      <point x="350" y="385" type="curve" smooth="yes"/>
      <point x="280" y="255" type="line"/>
      <point x="273" y="245"/>
      <point x="274" y="247"/>
      <point x="268" y="249" type="curve"/>
      <point x="182" y="394" type="line" smooth="yes"/>
      <point x="162" y="426"/>
      <point x="162" y="427"/>
      <point x="162" y="434" type="curve" smooth="yes"/>
      <point x="162" y="436"/>
      <point x="163" y="445"/>
      <point x="198" y="445" type="curve" smooth="yes"/>
      <point x="213" y="445"/>
      <point x="215" y="458"/>
      <point x="211" y="468" type="curve"/>
      <point x="207" y="480"/>
      <point x="201" y="478"/>
      <point x="189" y="478" type="curve" smooth="yes"/>
      <point x="142" y="477"/>
      <point x="95" y="475"/>
      <point x="48" y="477" type="curve" smooth="yes"/>
      <point x="26" y="479"/>
      <point x="5" y="486"/>
      <point x="7" y="457" type="curve"/>
      <point x="7" y="443"/>
      <point x="14" y="445"/>
      <point x="24" y="444" type="curve" smooth="yes"/>
      <point x="57" y="442"/>
      <point x="71" y="431"/>
      <point x="101" y="381" type="curve" smooth="yes"/>
      <point x="221" y="177" type="line"/>
      <point x="221" y="144"/>
      <point x="222" y="110"/>
      <point x="221" y="77" type="curve" smooth="yes"/>
      <point x="220" y="43"/>
      <point x="209" y="37"/>
      <point x="176" y="37" type="curve"/>
      <point x="170" y="39"/>
      <point x="166" y="36"/>
      <point x="160" y="36" type="curve"/>
      <point x="144" y="37"/>
      <point x="147" y="-3"/>
      <point x="162" y="-3" type="curve" smooth="yes"/>
      <point x="223" y="0"/>
      <point x="308" y="-1"/>
      <point x="356" y="-3" type="curve" smooth="yes"/>
      <point x="373" y="-3"/>
      <point x="375" y="33"/>
      <point x="359" y="35" type="curve"/>
      <point x="354" y="37"/>
      <point x="349" y="36"/>
      <point x="346" y="36" type="curve" smooth="yes"/>
      <point x="308" y="36"/>
      <point x="299" y="42"/>
      <point x="299" y="76" type="curve" smooth="yes"/>
      <point x="299" y="186" type="line"/>
      <point x="398" y="365" type="line" smooth="yes"/>
      <point x="418" y="402"/>
      <point x="423" y="410"/>
      <point x="433" y="420" type="curve" smooth="yes"/>
      <point x="448" y="435"/>
      <point x="462" y="444"/>
    </contour>
    <contour>
      <point x="379" y="723" type="curve"/>
      <point x="381" y="731"/>
      <point x="372" y="733"/>
      <point x="365" y="732" type="curve"/>
      <point x="277" y="732" type="line" smooth="yes"/>
      <point x="270" y="732"/>
      <point x="262" y="727"/>
      <point x="258" y="719" type="curve"/>
      <point x="209" y="555" type="line" smooth="yes"/>
      <point x="204" y="539"/>
      <point x="229" y="539"/>
      <point x="235" y="546" type="curve" smooth="yes"/>
      <point x="378" y="718" type="line"/>
      <point x="378" y="719"/>
      <point x="379" y="721"/>
    </contour>
  </outline>
</glyph>
<glyph name="thorn" format="2">
  <advance width="434"/>
  <unicode hex="00FE"/>
  <outline>
    <contour>
      <point x="218" y="102" type="curve" smooth="yes"/>
      <point x="327" y="102"/>
      <point x="393" y="162"/>
      <point x="393" y="251" type="curve" smooth="yes"/>
      <point x="393" y="373"/>
      <point x="287" y="396"/>
      <point x="201" y="396" type="curve" smooth="yes"/>
      <point x="184" y="396" type="line"/>
      <point x="184" y="400"/>
      <point x="185" y="414"/>
      <point x="185" y="417" type="curve"/>
      <point x="188" y="441"/>
      <point x="195" y="443"/>
      <point x="221" y="444" type="curve" smooth="yes"/>
      <point x="229" y="444"/>
      <point x="234" y="443"/>
      <point x="237" y="452" type="curve"/>
      <point x="239" y="457"/>
      <point x="240" y="465"/>
      <point x="238" y="470" type="curve"/>
      <point x="235" y="479"/>
      <point x="227" y="478"/>
      <point x="218" y="477" type="curve"/>
      <point x="175" y="476"/>
      <point x="118" y="476"/>
      <point x="75" y="478" type="curve" smooth="yes"/>
      <point x="66" y="478"/>
      <point x="57" y="480"/>
      <point x="54" y="471" type="curve"/>
      <point x="51" y="465"/>
      <point x="52" y="456"/>
      <point x="54" y="451" type="curve" smooth="yes"/>
      <point x="56" y="446"/>
      <point x="62" y="444"/>
      <point x="67" y="444" type="curve"/>
      <point x="103" y="442"/>
      <point x="106" y="433"/>
      <point x="106" y="400" type="curve" smooth="yes"/>
      <point x="106" y="62" type="line" smooth="yes"/>
      <point x="106" y="40"/>
      <point x="98" y="34"/>
      <point x="69" y="34" type="curve" smooth="yes"/>
      <point x="66" y="34"/>
      <point x="60" y="34"/>
      <point x="55" y="33" type="curve" smooth="yes"/>
      <point x="39" y="29"/>
      <point x="43" y="-3"/>
      <point x="58" y="-3" type="curve" smooth="yes"/>
      <point x="104" y="-1"/>
      <point x="200" y="-2"/>
      <point x="251" y="-4" type="curve"/>
      <point x="269" y="-6"/>
      <point x="276" y="36"/>
      <point x="246" y="34" type="curve"/>
      <point x="229" y="34" type="line" smooth="yes"/>
      <point x="192" y="34"/>
      <point x="183" y="41"/>
      <point x="183" y="76" type="curve" smooth="yes"/>
      <point x="183" y="99" type="line" smooth="yes"/>
      <point x="183" y="115"/>
      <point x="185" y="107"/>
      <point x="192" y="106" type="curve"/>
      <point x="200" y="104"/>
      <point x="209" y="102"/>
    </contour>
    <contour>
      <point x="191" y="362" type="curve"/>
      <point x="264" y="372"/>
      <point x="315" y="328"/>
      <point x="315" y="251" type="curve" smooth="yes"/>
      <point x="315" y="178"/>
      <point x="275" y="137"/>
      <point x="213" y="137" type="curve" smooth="yes"/>
      <point x="188" y="137"/>
      <point x="183" y="146"/>
      <point x="183" y="160" type="curve" smooth="yes"/>
      <point x="183" y="353" type="line"/>
      <point x="184" y="358"/>
      <point x="187" y="362"/>
    </contour>
  </outline>
</glyph>
<glyph name="caron" format="2">
  <advance width="349"/>
  <unicode hex="02C7"/>
  <outline>
    <contour>
      <point x="326" y="732" type="line"/>
      <point x="326" y="735"/>
      <point x="320" y="737"/>
      <point x="314" y="737" type="curve" smooth="yes"/>
      <point x="308" y="737"/>
      <point x="301" y="735"/>
      <point x="299" y="733" type="curve" smooth="yes"/>
      <point x="186" y="628" type="line"/>
      <point x="51" y="733" type="line"/>
      <point x="48" y="737"/>
      <point x="41" y="738"/>
      <point x="35" y="738" type="curve" smooth="yes"/>
      <point x="32" y="738"/>
      <point x="29" y="738"/>
      <point x="27" y="737" type="curve" smooth="yes"/>
      <point x="25" y="736"/>
      <point x="23" y="734"/>
      <point x="25" y="731" type="curve"/>
      <point x="121" y="564" type="line"/>
      <point x="122" y="559"/>
      <point x="128" y="556"/>
      <point x="139" y="556" type="curve" smooth="yes"/>
      <point x="215" y="556" type="line" smooth="yes"/>
      <point x="223" y="556"/>
      <point x="225" y="557"/>
      <point x="229" y="561" type="curve"/>
    </contour>
  </outline>
</glyph>
<glyph name="breve" format="2">
  <advance width="349"/>
  <unicode hex="02D8"/>
  <outline>
    <contour>
      <point x="325" y="706" type="curve"/>
      <point x="326" y="710"/>
      <point x="320" y="711"/>
      <point x="313" y="711" type="curve" smooth="yes"/>
      <point x="307" y="711"/>
      <point x="300" y="710"/>
      <point x="298" y="707" type="curve"/>
      <point x="283" y="665"/>
      <point x="243" y="642"/>
      <point x="176" y="642" type="curve" smooth="yes"/>
      <point x="110" y="642"/>
      <point x="75" y="661"/>
      <point x="51" y="707" type="curve"/>
      <point x="48" y="716"/>
      <point x="25" y="712"/>
      <point x="25" y="706" type="curve"/>
      <point x="33" y="615"/>
      <point x="94" y="556"/>
      <point x="175" y="556" type="curve" smooth="yes"/>
      <point x="256" y="556"/>
      <point x="318" y="616"/>
    </contour>
  </outline>
</glyph>
<glyph name="minus" format="2">
  <advance width="435"/>
  <unicode hex="2212"/>
  <outline>
    <contour>
      <point x="394" y="217" type="curve"/>
      <point x="392" y="255" type="line"/>
      <point x="391" y="263"/>
      <point x="376" y="269"/>
      <point x="370" y="268" type="curve"/>
      <point x="299" y="265"/>
      <point x="152" y="265"/>
      <point x="74" y="268" type="curve"/>
      <point x="68" y="269"/>
      <point x="46" y="262"/>
      <point x="45" y="249" type="curve" smooth="yes"/>
      <point x="44" y="220" type="line"/>
      <point x="46" y="207"/>
      <point x="62" y="200"/>
      <point x="69" y="199" type="curve"/>
      <point x="139" y="196"/>
      <point x="289" y="195"/>
      <point x="371" y="199" type="curve"/>
      <point x="380" y="201"/>
      <point x="391" y="206"/>
    </contour>
  </outline>
</glyph>
